<?xml version="1.0" encoding="UTF-8" standalone="no"?>
<!-- Created with Inkscape (http://www.inkscape.org/) -->

<svg
   width="9.844449mm"
   height="8.2000008mm"
   viewBox="0 0 9.844449 8.2000008"
   version="1.1"
   id="svg1"
   xml:space="preserve"
   xmlns="http://www.w3.org/2000/svg"
   xmlns:svg="http://www.w3.org/2000/svg"><defs
     id="defs1" /><g
     id="layer1"
     transform="translate(-122.54238,-188.26252)"><g
       id="g114"><text
         xml:space="preserve"
         style="font-style:normal;font-variant:normal;font-weight:normal;font-stretch:normal;font-size:2.82222px;line-height:125%;font-family:'MS UI Gothic';-inkscape-font-specification:'MS UI Gothic';letter-spacing:0px;word-spacing:0px;fill:#000000;fill-opacity:1;stroke:none;stroke-width:0.264583px;stroke-linecap:butt;stroke-linejoin:miter;stroke-opacity:1"
         x="107.39192"
         y="186.02701"
         id="text11-0-6-6"><tspan
           style="font-size:2.82222px;stroke-width:0.264583px"
           x="107.39192"
           y="186.02701"
           id="tspan12-17-7-16">◆光デジタル端子</tspan></text><text
         xml:space="preserve"
         style="font-style:normal;font-variant:normal;font-weight:normal;font-stretch:normal;font-size:2.82222px;line-height:125%;font-family:'MS UI Gothic';-inkscape-font-specification:'MS UI Gothic';letter-spacing:0px;word-spacing:0px;fill:#000000;fill-opacity:1;stroke:none;stroke-width:0.264583px;stroke-linecap:butt;stroke-linejoin:miter;stroke-opacity:1"
         x="119.91219"
         y="200.01607"
         id="text11-0-6-6-2"><tspan
           style="font-size:2.82222px;stroke-width:0.264583px"
           x="119.91219"
           y="200.01607"
           id="tspan12-17-7-16-2">光デジタル端子</tspan><tspan
           style="font-size:2.82222px;stroke-width:0.264583px"
           x="119.91219"
           y="203.54384"
           id="tspan113">（角型）</tspan></text><g
         id="g113"
         transform="translate(-54.249078,-4.7490775)"><rect
           style="fill:#010000;fill-opacity:1;stroke:#000000;stroke-width:0.499999;stroke-linecap:round;stroke-linejoin:round;stroke-dasharray:none;stroke-dashoffset:2.84996;stroke-opacity:1"
           id="rect92-3"
           width="9.34445"
           height="7.7000012"
           x="177.04146"
           y="193.2616"
           ry="0.25733462" /><path
           id="path113-0"
           style="fill:#6f6f6f;stroke:#000000;stroke-width:0.499999;stroke-linecap:round;stroke-linejoin:round;stroke-dashoffset:2.84996"
           d="m 178.8765,197.92665 c -0.41421,0 -0.75,-0.33579 -0.75,-0.75 0,-0.41421 0.33579,-0.75 0.75,-0.75 l 0.003,-1.80091 c 0,-0.19131 0.15401,-0.34532 0.34532,-0.34532 h 4.97173 c 0.1913,0 0.34531,0.15401 0.34531,0.34532 l 0.009,1.80091 c 0.41421,0 0.75,0.33579 0.75,0.75 0,0.41421 -0.33579,0.75 -0.75,0.75 l -0.004,0.90391 -0.83978,1.11222 h -3.94713 l -0.88245,-1.11222 z" /><path
           id="rect112"
           style="fill:#6f6f6f;stroke:#000000;stroke-width:0.499999;stroke-linecap:round;stroke-linejoin:round;stroke-dashoffset:2.84996"
           d="m 180.19883,195.15808 h 3.0297 c 0.17147,0 0.30951,0.13804 0.30951,0.30951 v 2.86963 l -0.56644,0.72789 h -2.43511 l -0.64716,-0.72789 v -2.86963 c 0,-0.17147 0.13804,-0.30951 0.3095,-0.30951 z" /><circle
           style="fill:#6f6f6f;fill-opacity:1;stroke:#000000;stroke-width:0.499999;stroke-linecap:round;stroke-linejoin:round;stroke-dasharray:none;stroke-dashoffset:2.84996;stroke-opacity:1"
           id="path112"
           cx="181.71368"
           cy="197.1116"
           r="1.0000005" /></g></g></g></svg>
